<svg width="374" height="667" viewBox="0 0 374 667" fill="none" xmlns="http://www.w3.org/2000/svg">
<path d="M3.04126 321.598C3.1496 293.846 3.00018 34.9219 3.00018 34.9219C54.9049 -14.2155 81.8542 -6.22287 127.653 34.9219V220.96C181.912 270.737 211.185 267.86 261.818 220.96V164.424C309.641 130.415 331.369 144.548 351.427 164.424C371.486 184.3 387.766 249.327 351.427 284.745C142.068 284.055 5.7543 295.89 3.04126 321.598C3.03033 324.398 3.01677 324.845 3.00018 322.436C2.99824 322.155 3.01196 321.876 3.04126 321.598Z" fill="#1D9BF0"/>
<path d="M3.00018 34.9219C3.00018 34.9219 3.18127 348.725 3.00018 322.436C2.81909 296.147 139.807 284.048 351.427 284.745C387.766 249.327 371.486 184.3 351.427 164.424C331.369 144.548 309.641 130.415 261.818 164.424V220.96C211.185 267.86 181.912 270.737 127.653 220.96V34.9219C81.8542 -6.22287 54.9049 -14.2155 3.00018 34.9219Z" stroke="#1D9BF0"/>
<path d="M372.678 345.555C372.333 373.305 370.275 632.221 370.275 632.221C317.954 680.914 291.073 672.692 245.627 631.159L247.213 445.127C193.38 394.89 164.083 397.517 113.053 443.984L112.571 500.518C64.4597 534.118 42.8529 519.801 22.9644 499.754C3.07601 479.708 -12.6488 414.544 23.99 379.437C233.336 381.912 369.746 371.239 372.678 345.555C372.712 342.755 372.73 342.309 372.726 344.718C372.725 344.999 372.709 345.278 372.678 345.555Z" fill="#1D9BF0"/>
<path d="M370.275 632.221C370.275 632.221 372.769 318.428 372.726 344.718C372.683 371.007 235.597 381.938 23.99 379.437C-12.6488 414.544 3.07602 479.707 22.9644 499.754C42.8529 519.801 64.4597 534.118 112.571 500.518L113.053 443.984C164.083 397.517 193.38 394.89 247.213 445.127L245.627 631.159C291.073 672.692 317.954 680.914 370.275 632.221Z" stroke="#1D9BF0"/>
</svg>
